<mxfile host="app.diagrams.net" modified="2020-10-20T11:58:27.854Z" agent="5.0 (X11; Linux x86_64) AppleWebKit/537.36 (KHTML, like Gecko) Chrome/86.0.4240.75 Safari/537.36" etag="xexOnY46jWlXavzTVpyA" version="13.8.0" type="github">
  <diagram id="r_7DD7P08TATSj3Ht2t5" name="Page-1">
    <mxGraphModel dx="1185" dy="694" grid="1" gridSize="10" guides="1" tooltips="1" connect="1" arrows="1" fold="1" page="1" pageScale="1" pageWidth="2000" pageHeight="2000" math="0" shadow="0">
      <root>
        <mxCell id="0" />
        <mxCell id="1" parent="0" />
        <mxCell id="QFyUFz14XD1uCumSfsiI-4" value="" style="edgeStyle=orthogonalEdgeStyle;rounded=0;orthogonalLoop=1;jettySize=auto;html=1;" parent="1" source="QFyUFz14XD1uCumSfsiI-1" target="QFyUFz14XD1uCumSfsiI-3" edge="1">
          <mxGeometry relative="1" as="geometry" />
        </mxCell>
        <mxCell id="QFyUFz14XD1uCumSfsiI-1" value="Channel name clicked" style="rounded=0;whiteSpace=wrap;html=1;" parent="1" vertex="1">
          <mxGeometry x="200" y="20" width="120" height="60" as="geometry" />
        </mxCell>
        <mxCell id="QFyUFz14XD1uCumSfsiI-8" value="" style="edgeStyle=orthogonalEdgeStyle;rounded=0;orthogonalLoop=1;jettySize=auto;html=1;" parent="1" source="QFyUFz14XD1uCumSfsiI-3" target="QFyUFz14XD1uCumSfsiI-7" edge="1">
          <mxGeometry relative="1" as="geometry" />
        </mxCell>
        <mxCell id="QFyUFz14XD1uCumSfsiI-3" value="request SR API with channel program with id found on event.target" style="whiteSpace=wrap;html=1;rounded=0;" parent="1" vertex="1">
          <mxGeometry x="200" y="100" width="120" height="60" as="geometry" />
        </mxCell>
        <mxCell id="QFyUFz14XD1uCumSfsiI-10" value="" style="edgeStyle=orthogonalEdgeStyle;rounded=0;orthogonalLoop=1;jettySize=auto;html=1;entryX=0.75;entryY=1;entryDx=0;entryDy=0;" parent="1" source="QFyUFz14XD1uCumSfsiI-7" target="QFyUFz14XD1uCumSfsiI-9" edge="1">
          <mxGeometry relative="1" as="geometry" />
        </mxCell>
        <mxCell id="QFyUFz14XD1uCumSfsiI-55" value="" style="edgeStyle=orthogonalEdgeStyle;rounded=0;orthogonalLoop=1;jettySize=auto;html=1;" parent="1" source="QFyUFz14XD1uCumSfsiI-7" target="QFyUFz14XD1uCumSfsiI-54" edge="1">
          <mxGeometry relative="1" as="geometry">
            <Array as="points">
              <mxPoint x="330" y="220" />
              <mxPoint x="330" y="50" />
            </Array>
          </mxGeometry>
        </mxCell>
        <mxCell id="QFyUFz14XD1uCumSfsiI-7" value="status 200?" style="rhombus;whiteSpace=wrap;html=1;rounded=0;" parent="1" vertex="1">
          <mxGeometry x="220" y="180" width="80" height="80" as="geometry" />
        </mxCell>
        <mxCell id="QFyUFz14XD1uCumSfsiI-9" value="exit" style="whiteSpace=wrap;html=1;rounded=0;" parent="1" vertex="1">
          <mxGeometry x="40" y="40" width="120" height="60" as="geometry" />
        </mxCell>
        <mxCell id="QFyUFz14XD1uCumSfsiI-11" value="no" style="text;html=1;strokeColor=none;fillColor=none;align=center;verticalAlign=middle;whiteSpace=wrap;rounded=0;" parent="1" vertex="1">
          <mxGeometry x="180" y="200" width="40" height="20" as="geometry" />
        </mxCell>
        <mxCell id="QFyUFz14XD1uCumSfsiI-20" value="" style="edgeStyle=orthogonalEdgeStyle;rounded=0;orthogonalLoop=1;jettySize=auto;html=1;" parent="1" source="QFyUFz14XD1uCumSfsiI-12" target="QFyUFz14XD1uCumSfsiI-19" edge="1">
          <mxGeometry relative="1" as="geometry" />
        </mxCell>
        <mxCell id="QFyUFz14XD1uCumSfsiI-12" value="iterate over channel programs" style="whiteSpace=wrap;html=1;rounded=0;" parent="1" vertex="1">
          <mxGeometry x="360" y="100" width="120" height="60" as="geometry" />
        </mxCell>
        <mxCell id="QFyUFz14XD1uCumSfsiI-14" value="yes" style="text;html=1;strokeColor=none;fillColor=none;align=center;verticalAlign=middle;whiteSpace=wrap;rounded=0;" parent="1" vertex="1">
          <mxGeometry x="290" y="200" width="40" height="20" as="geometry" />
        </mxCell>
        <mxCell id="QFyUFz14XD1uCumSfsiI-22" value="" style="edgeStyle=orthogonalEdgeStyle;rounded=0;orthogonalLoop=1;jettySize=auto;html=1;" parent="1" source="QFyUFz14XD1uCumSfsiI-19" target="QFyUFz14XD1uCumSfsiI-21" edge="1">
          <mxGeometry relative="1" as="geometry" />
        </mxCell>
        <mxCell id="QFyUFz14XD1uCumSfsiI-19" value="parse programs end time to JS Date &lt;br&gt;object" style="whiteSpace=wrap;html=1;rounded=0;" parent="1" vertex="1">
          <mxGeometry x="360" y="180" width="120" height="60" as="geometry" />
        </mxCell>
        <mxCell id="QFyUFz14XD1uCumSfsiI-24" value="" style="edgeStyle=orthogonalEdgeStyle;rounded=0;orthogonalLoop=1;jettySize=auto;html=1;" parent="1" source="QFyUFz14XD1uCumSfsiI-21" target="QFyUFz14XD1uCumSfsiI-23" edge="1">
          <mxGeometry relative="1" as="geometry" />
        </mxCell>
        <mxCell id="W1YjHSCZ_myv30oFrgOa-3" value="" style="edgeStyle=orthogonalEdgeStyle;rounded=0;orthogonalLoop=1;jettySize=auto;html=1;entryX=1;entryY=0.25;entryDx=0;entryDy=0;" edge="1" parent="1" source="QFyUFz14XD1uCumSfsiI-21" target="W1YjHSCZ_myv30oFrgOa-2">
          <mxGeometry relative="1" as="geometry" />
        </mxCell>
        <mxCell id="QFyUFz14XD1uCumSfsiI-21" value="parsed date &lt;br&gt;passed current &lt;br&gt;time?" style="rhombus;whiteSpace=wrap;html=1;rounded=0;" parent="1" vertex="1">
          <mxGeometry x="365" y="260" width="110" height="90" as="geometry" />
        </mxCell>
        <mxCell id="QFyUFz14XD1uCumSfsiI-28" value="" style="edgeStyle=orthogonalEdgeStyle;rounded=0;orthogonalLoop=1;jettySize=auto;html=1;" parent="1" source="QFyUFz14XD1uCumSfsiI-23" target="QFyUFz14XD1uCumSfsiI-27" edge="1">
          <mxGeometry relative="1" as="geometry" />
        </mxCell>
        <mxCell id="QFyUFz14XD1uCumSfsiI-23" value="create article, h3, h4, h5 and p tag" style="whiteSpace=wrap;html=1;rounded=0;" parent="1" vertex="1">
          <mxGeometry x="360" y="390" width="120" height="60" as="geometry" />
        </mxCell>
        <mxCell id="QFyUFz14XD1uCumSfsiI-25" value="yes" style="text;html=1;strokeColor=none;fillColor=none;align=center;verticalAlign=middle;whiteSpace=wrap;rounded=0;" parent="1" vertex="1">
          <mxGeometry x="420" y="370" width="40" height="20" as="geometry" />
        </mxCell>
        <mxCell id="QFyUFz14XD1uCumSfsiI-32" value="" style="edgeStyle=orthogonalEdgeStyle;rounded=0;orthogonalLoop=1;jettySize=auto;html=1;" parent="1" source="QFyUFz14XD1uCumSfsiI-27" target="QFyUFz14XD1uCumSfsiI-31" edge="1">
          <mxGeometry relative="1" as="geometry" />
        </mxCell>
        <mxCell id="QFyUFz14XD1uCumSfsiI-27" value="set h3 tags innerHTML to programs title" style="whiteSpace=wrap;html=1;rounded=0;" parent="1" vertex="1">
          <mxGeometry x="360" y="470" width="120" height="60" as="geometry" />
        </mxCell>
        <mxCell id="QFyUFz14XD1uCumSfsiI-34" value="" style="edgeStyle=orthogonalEdgeStyle;rounded=0;orthogonalLoop=1;jettySize=auto;html=1;" parent="1" source="QFyUFz14XD1uCumSfsiI-31" target="QFyUFz14XD1uCumSfsiI-33" edge="1">
          <mxGeometry relative="1" as="geometry" />
        </mxCell>
        <mxCell id="W1YjHSCZ_myv30oFrgOa-12" style="edgeStyle=orthogonalEdgeStyle;rounded=0;orthogonalLoop=1;jettySize=auto;html=1;entryX=1;entryY=0.5;entryDx=0;entryDy=0;" edge="1" parent="1" source="QFyUFz14XD1uCumSfsiI-31" target="QFyUFz14XD1uCumSfsiI-36">
          <mxGeometry relative="1" as="geometry" />
        </mxCell>
        <mxCell id="QFyUFz14XD1uCumSfsiI-31" value="program have&lt;br&gt;sub title?" style="rhombus;whiteSpace=wrap;html=1;rounded=0;" parent="1" vertex="1">
          <mxGeometry x="355" y="550" width="130" height="80" as="geometry" />
        </mxCell>
        <mxCell id="W1YjHSCZ_myv30oFrgOa-6" style="edgeStyle=orthogonalEdgeStyle;rounded=0;orthogonalLoop=1;jettySize=auto;html=1;entryX=1;entryY=0.75;entryDx=0;entryDy=0;exitX=0;exitY=0.75;exitDx=0;exitDy=0;" edge="1" parent="1" source="QFyUFz14XD1uCumSfsiI-33" target="QFyUFz14XD1uCumSfsiI-41">
          <mxGeometry relative="1" as="geometry" />
        </mxCell>
        <mxCell id="QFyUFz14XD1uCumSfsiI-33" value="add empty string to h4 tag" style="whiteSpace=wrap;html=1;rounded=0;" parent="1" vertex="1">
          <mxGeometry x="360" y="645" width="120" height="60" as="geometry" />
        </mxCell>
        <mxCell id="QFyUFz14XD1uCumSfsiI-35" value="no" style="text;html=1;strokeColor=none;fillColor=none;align=center;verticalAlign=middle;whiteSpace=wrap;rounded=0;" parent="1" vertex="1">
          <mxGeometry x="420" y="625" width="40" height="20" as="geometry" />
        </mxCell>
        <mxCell id="QFyUFz14XD1uCumSfsiI-42" value="" style="edgeStyle=orthogonalEdgeStyle;rounded=0;orthogonalLoop=1;jettySize=auto;html=1;exitX=0.5;exitY=1;exitDx=0;exitDy=0;entryX=1;entryY=0.25;entryDx=0;entryDy=0;" parent="1" source="QFyUFz14XD1uCumSfsiI-36" target="QFyUFz14XD1uCumSfsiI-41" edge="1">
          <mxGeometry relative="1" as="geometry">
            <Array as="points">
              <mxPoint x="255" y="660" />
            </Array>
          </mxGeometry>
        </mxCell>
        <mxCell id="QFyUFz14XD1uCumSfsiI-36" value="add programs sub title to h3 tag" style="whiteSpace=wrap;html=1;rounded=0;" parent="1" vertex="1">
          <mxGeometry x="195" y="560" width="120" height="60" as="geometry" />
        </mxCell>
        <mxCell id="QFyUFz14XD1uCumSfsiI-38" value="yes" style="text;html=1;strokeColor=none;fillColor=none;align=center;verticalAlign=middle;whiteSpace=wrap;rounded=0;" parent="1" vertex="1">
          <mxGeometry x="320" y="570" width="40" height="20" as="geometry" />
        </mxCell>
        <mxCell id="W1YjHSCZ_myv30oFrgOa-11" style="edgeStyle=orthogonalEdgeStyle;rounded=0;orthogonalLoop=1;jettySize=auto;html=1;entryX=0.5;entryY=1;entryDx=0;entryDy=0;" edge="1" parent="1" source="QFyUFz14XD1uCumSfsiI-41" target="QFyUFz14XD1uCumSfsiI-44">
          <mxGeometry relative="1" as="geometry" />
        </mxCell>
        <mxCell id="QFyUFz14XD1uCumSfsiI-41" value="parse programs start time to JS Date&lt;br&gt;object" style="whiteSpace=wrap;html=1;rounded=0;" parent="1" vertex="1">
          <mxGeometry x="45" y="645" width="120" height="60" as="geometry" />
        </mxCell>
        <mxCell id="QFyUFz14XD1uCumSfsiI-47" value="" style="edgeStyle=orthogonalEdgeStyle;rounded=0;orthogonalLoop=1;jettySize=auto;html=1;" parent="1" source="QFyUFz14XD1uCumSfsiI-44" target="QFyUFz14XD1uCumSfsiI-46" edge="1">
          <mxGeometry relative="1" as="geometry" />
        </mxCell>
        <mxCell id="QFyUFz14XD1uCumSfsiI-44" value="format the parsed start and end time with Intl" style="whiteSpace=wrap;html=1;rounded=0;" parent="1" vertex="1">
          <mxGeometry x="45" y="560" width="120" height="60" as="geometry" />
        </mxCell>
        <mxCell id="QFyUFz14XD1uCumSfsiI-49" value="" style="edgeStyle=orthogonalEdgeStyle;rounded=0;orthogonalLoop=1;jettySize=auto;html=1;" parent="1" source="QFyUFz14XD1uCumSfsiI-46" target="QFyUFz14XD1uCumSfsiI-48" edge="1">
          <mxGeometry relative="1" as="geometry" />
        </mxCell>
        <mxCell id="QFyUFz14XD1uCumSfsiI-46" value="add start and end time to h5 tag" style="whiteSpace=wrap;html=1;rounded=0;" parent="1" vertex="1">
          <mxGeometry x="45" y="470" width="120" height="60" as="geometry" />
        </mxCell>
        <mxCell id="QFyUFz14XD1uCumSfsiI-51" value="" style="edgeStyle=orthogonalEdgeStyle;rounded=0;orthogonalLoop=1;jettySize=auto;html=1;" parent="1" source="QFyUFz14XD1uCumSfsiI-48" target="QFyUFz14XD1uCumSfsiI-50" edge="1">
          <mxGeometry relative="1" as="geometry" />
        </mxCell>
        <mxCell id="QFyUFz14XD1uCumSfsiI-48" value="add program description to p tag" style="whiteSpace=wrap;html=1;rounded=0;" parent="1" vertex="1">
          <mxGeometry x="195" y="470" width="120" height="60" as="geometry" />
        </mxCell>
        <mxCell id="QFyUFz14XD1uCumSfsiI-53" value="" style="edgeStyle=orthogonalEdgeStyle;rounded=0;orthogonalLoop=1;jettySize=auto;html=1;" parent="1" source="QFyUFz14XD1uCumSfsiI-50" target="QFyUFz14XD1uCumSfsiI-52" edge="1">
          <mxGeometry relative="1" as="geometry" />
        </mxCell>
        <mxCell id="QFyUFz14XD1uCumSfsiI-50" value="add h3, h4, h5 and p tag to article tag" style="whiteSpace=wrap;html=1;rounded=0;" parent="1" vertex="1">
          <mxGeometry x="195" y="390" width="120" height="60" as="geometry" />
        </mxCell>
        <mxCell id="W1YjHSCZ_myv30oFrgOa-8" style="edgeStyle=orthogonalEdgeStyle;rounded=0;orthogonalLoop=1;jettySize=auto;html=1;entryX=0.5;entryY=1;entryDx=0;entryDy=0;" edge="1" parent="1" source="QFyUFz14XD1uCumSfsiI-52" target="QFyUFz14XD1uCumSfsiI-58">
          <mxGeometry relative="1" as="geometry" />
        </mxCell>
        <mxCell id="QFyUFz14XD1uCumSfsiI-52" value="add article tag to div with id info" style="whiteSpace=wrap;html=1;rounded=0;" parent="1" vertex="1">
          <mxGeometry x="40" y="390" width="120" height="60" as="geometry" />
        </mxCell>
        <mxCell id="QFyUFz14XD1uCumSfsiI-54" value="set div with id info innerHTML to empty string" style="whiteSpace=wrap;html=1;rounded=0;" parent="1" vertex="1">
          <mxGeometry x="360" y="20" width="120" height="60" as="geometry" />
        </mxCell>
        <mxCell id="QFyUFz14XD1uCumSfsiI-56" value="" style="endArrow=classic;html=1;entryX=0.5;entryY=0;entryDx=0;entryDy=0;exitX=0.5;exitY=1;exitDx=0;exitDy=0;" parent="1" source="QFyUFz14XD1uCumSfsiI-54" target="QFyUFz14XD1uCumSfsiI-12" edge="1">
          <mxGeometry width="50" height="50" relative="1" as="geometry">
            <mxPoint x="640" y="80" as="sourcePoint" />
            <mxPoint x="800" y="230" as="targetPoint" />
          </mxGeometry>
        </mxCell>
        <mxCell id="W1YjHSCZ_myv30oFrgOa-4" style="edgeStyle=orthogonalEdgeStyle;rounded=0;orthogonalLoop=1;jettySize=auto;html=1;exitX=0.5;exitY=0;exitDx=0;exitDy=0;entryX=0.5;entryY=1;entryDx=0;entryDy=0;" edge="1" parent="1" source="QFyUFz14XD1uCumSfsiI-58" target="QFyUFz14XD1uCumSfsiI-9">
          <mxGeometry relative="1" as="geometry" />
        </mxCell>
        <mxCell id="W1YjHSCZ_myv30oFrgOa-7" style="edgeStyle=orthogonalEdgeStyle;rounded=0;orthogonalLoop=1;jettySize=auto;html=1;entryX=0;entryY=0.5;entryDx=0;entryDy=0;" edge="1" parent="1" source="QFyUFz14XD1uCumSfsiI-58" target="QFyUFz14XD1uCumSfsiI-12">
          <mxGeometry relative="1" as="geometry">
            <Array as="points">
              <mxPoint x="340" y="275" />
              <mxPoint x="340" y="130" />
            </Array>
          </mxGeometry>
        </mxCell>
        <mxCell id="QFyUFz14XD1uCumSfsiI-58" value="more channel programs?" style="rhombus;whiteSpace=wrap;html=1;rounded=0;" parent="1" vertex="1">
          <mxGeometry x="45" y="220" width="110" height="110" as="geometry" />
        </mxCell>
        <mxCell id="W1YjHSCZ_myv30oFrgOa-2" value="exit" style="whiteSpace=wrap;html=1;rounded=0;" vertex="1" parent="1">
          <mxGeometry x="195" y="300" width="120" height="60" as="geometry" />
        </mxCell>
      </root>
    </mxGraphModel>
  </diagram>
</mxfile>
